# xmcd CD database file generated by Grip 3.2.0
# 
# Track frame offsets:
#       150
#       16528
#       20752
#       33020
#       45639
#       67173
#       92037
#       107720
#       129729
#       143850
#       160804
#       176288
#       185712
#       198630
# 
# Disc length: 2801 seconds
# 
# Revision: 2
# Processed by: cddbd v1.5.1PL2 Copyright (c) Steve Scherf et al.
# Submitted via: Grip 3.2.0
# 
DISCID=bd0aef0e
DTITLE=Various Artist - blues breakers
DYEAR=1900
DGENRE=Blues
TTITLE0=muddy waters - mannish boy
TTITLE1=mississippi john hurt - chicken blues
TTITLE2=john lee hooker - i'm in the mood
TTITLE3=elmore james - the sky is crying
TTITLE4=brownie mcghee and sonny terry - blues for the lowlands
TTITLE5=ike and tina turner - all i can do is cry
TTITLE6=lightnin' hopkins - coffee for mama
TTITLE7=john mayall - a big man
TTITLE8=eric clapton - draggin' my tail
TTITLE9=etta james - dust your broom
TTITLE10=big joe williams - nobody knows you when your down and out
TTITLE11=canned heat - big road blues
TTITLE12=nina simone - backlash blues
TTITLE13=lightning slim - ligtning's bad luck
EXTD=ID3G: 0
EXTT0=
EXTT1=
EXTT2=
EXTT3=
EXTT4=
EXTT5=
EXTT6=
EXTT7=
EXTT8=
EXTT9=
EXTT10=
EXTT11=
EXTT12=
EXTT13=
PLAYORDER=
